<svg xmlns="http://www.w3.org/2000/svg" width="100" height="100" viewBox="0 0 100 100">
    <path d="M37.3 54.0L37.7 54.0Q58.7 54.0 67.7 65L67.7 65Q70.7 68.7 71.0 73.7L71.0 73.7L71.0 79Q71.0 82.7 68.5 85.2Q66.0 87.7 62.7 87.3L62.7 87.3L12.7 87.3Q9.0 87.3 6.5 85Q4 82.7 4 79L4 79L4 73.7Q4 68.7 7.3 65L7.3 65Q16.3 54.0 37.3 54.0L37.3 54.0ZM78.7 29.3L78.7 29.3L79.0 29.0Q80.7 29.0 81.8 30.2Q83.0 31.3 83.3 33.0L83.3 33.0L83.3 41.7L91.7 41.7Q93.3 41.7 94.5 42.7Q95.7 43.7 95.7 45.3L95.7 45.3L95.7 45.7Q95.7 47.3 94.7 48.5Q93.7 49.7 92.0 50.0L92.0 50.0L83.3 50.0L83.3 58.3Q83.3 60.0 82.3 61.2Q81.3 62.3 79.7 62.3L79.7 62.3L79.0 62.3Q77.7 62.3 76.5 61.3Q75.3 60.3 75.0 58.7L75.0 58.7L75.0 50.0L66.7 50.0Q65.0 50.0 63.8 49.0Q62.7 48.0 62.7 46.3L62.7 46.3L62.7 45.7Q62.7 44.3 63.7 43.2Q64.7 42.0 66.3 41.7L66.3 41.7L75.0 41.7L75.0 33.3Q75.0 31.7 76.0 30.5Q77.0 29.3 78.7 29.3ZM37.3 12.3L37.7 12.3Q44.3 12.3 49.2 17.3Q54.0 22.3 54.0 29.2Q54.0 36 49.2 40.8Q44.3 45.7 37.5 45.7Q30.7 45.7 25.8 40.8Q21.0 36 21.0 29.2Q21.0 22.3 25.8 17.3Q30.7 12.3 37.3 12.3L37.3 12.3Z" id="path_add-user-filled"></path>
</svg>