<svg xmlns="http://www.w3.org/2000/svg" width="100" height="100" viewBox="0 0 100 100">
    <path d="M50.0 4.3L50.0 4.0Q51.7 4.0 52.8 5.2Q54.0 6.3 54.0 8.0L54.0 8.0L54.0 12.3L56.3 12.3Q63.0 12.3 68.5 15.7Q74.0 19.0 77.5 24.5Q81.0 30.0 81.3 36.7L81.3 36.7L81.3 45.7L84.0 46.0Q88.7 46.0 92.2 49.5Q95.7 53.0 95.7 57.7L95.7 57.7L95.7 71.3Q95.7 73 94.5 74Q93.3 75 91.7 75Q90.0 75 88.8 74Q87.7 73 87.7 71.3L87.7 71.3L87.3 58.0Q87.3 56.3 86.3 55.3Q85.3 54.3 83.7 54.3L83.7 54.3L81.3 54.0L81.3 75Q81.3 81.7 76.7 86.5Q72.0 91.3 65.3 91.7L65.3 91.7L35.3 91.7Q28.7 91.7 23.8 87Q19.0 82.3 18.7 76L18.7 76L18.7 54.3L16.7 54.3Q15.0 54.3 13.8 55.3Q12.7 56.3 12.7 58.0L12.7 58.0L12.7 71Q12.7 72.3 11.5 73.7Q10.3 75 8.7 75Q7.0 75 5.7 74Q4.3 73 4.3 71.3L4.3 71.3L4.3 58.3Q4.3 53.3 7.7 49.7Q11.0 46.0 16 46.0L16 46.0L18.7 46.0L18.7 37.3Q18.7 31.0 22.0 25.3Q25.3 19.7 30.8 16.2Q36.3 12.7 42.7 12.7L42.7 12.7L46.0 12.3L46.0 8.3Q46.0 6.7 47.2 5.5Q48.3 4.3 50.0 4.3L50.0 4.3ZM69.3 54.0L69.3 54.0L68.7 54.3L31.3 54.3Q29.0 54.3 27.0 53.3L27.0 53.3L27.0 75Q27.0 78.3 29.3 80.7Q31.7 83 34.7 83.3L34.7 83.3L64.7 83.3Q68.0 83.3 70.3 81.2Q72.7 79 73.0 75.7L73.0 75.7L73.0 53.3Q71.3 54.0 69.3 54.0ZM56.3 20.7L56.3 21.0L43.7 21.0Q37.0 21.0 32.2 25.5Q27.3 30.0 27.0 36.7L27.0 36.7L27.0 41.7Q27.0 43.3 28.2 44.5Q29.3 45.7 30.7 45.7L30.7 45.7L68.7 45.7Q70.3 45.7 71.5 44.7Q72.7 43.7 73.0 42.0L73.0 42.0L73.0 37.3Q73.0 31.0 68.3 26.2Q63.7 21.3 57.0 21.0L57.0 21.0L56.3 20.7ZM39.7 31.3L39.7 31.3Q41.3 31.3 42.5 32.5Q43.7 33.7 43.7 35.3Q43.7 37.0 42.5 38.3Q41.3 39.7 39.7 39.7Q38.0 39.7 36.7 38.3Q35.3 37.0 35.3 35.3Q35.3 33.7 36.7 32.5Q38.0 31.3 39.7 31.3ZM60.3 31.3L60.3 31.3Q62.0 31.3 63.3 32.5Q64.7 33.7 64.7 35.3Q64.7 37.0 63.3 38.3Q62.0 39.7 60.3 39.7Q58.7 39.7 57.5 38.3Q56.3 37.0 56.3 35.3Q56.3 33.7 57.5 32.5Q58.7 31.3 60.3 31.3Z" id="path_bots"></path>
</svg>