<?xml version="1.0" encoding="UTF-8"?><svg xmlns="http://www.w3.org/2000/svg" xmlns:xlink="http://www.w3.org/1999/xlink" viewBox="720 140 570 840"><defs><linearGradient id="linear-gradient" x1="1008.41" y1="971.69" x2="1008.01" y2="148.86" gradientUnits="userSpaceOnUse"><stop offset="0" stop-color="#fff"/><stop offset="1" stop-color="#00aeef"/></linearGradient></defs><rect x="710.57" y="138.95" width="595.28" height="841.89" fill="url(#linear-gradient)"/><path d="m1305.57,975.14v-178.32c-67.08,7.61-167.76,25.4-276.17,70.85-83.67,35.09-145.13,75.41-186.84,107.47h463.01Z" fill="#8ac652"/><path d="m710.3,980.84v-178.32c67.08,7.61,167.76,25.4,276.17,70.85,83.67,35.09,145.13,75.41,186.84,107.47h-463.01Z" fill="#6dbe45"/><path d="m732.44,911.34c13.48-14.36,54.66-53.9,129.77-68.85,93.47-18.6,201.22,8.49,270.59,68.85h-400.36Z" fill="#51b848"/><path d="m954.24,872.07c-2.87-5.1-7.48-11.81-14.89-18.73-8.64-8.07-17.79-13.35-24.47-16.61,3.06-.01,6.13-.02,9.23-.01,2.73,0,5.45.01,8.16.03,5.56,3.35,11.78,7.58,18.03,12.85,7.97,6.73,13.81,13.3,18.03,18.85-4.7,1.21-9.4,2.41-14.1,3.62Z" fill="#ebb377"/><path d="m767.41,939.24c202.69-91.05,385.55-115.17,451.91-70.01,14.01,9.53,31.98,28.38,29.45,67.59-160.45.8-320.91,1.61-481.36,2.41Z" fill="#268c43"/><path d="m1031.37,922.03c-5.29-7.73-13.25-17.46-25.04-27.36-14.76-12.39-30.03-20.4-41.33-25.38,4.82-1.22,9.75-2.42,14.78-3.6,4.96-1.17,9.85-2.27,14.66-3.32,10.09,5.47,21.53,12.49,33.21,21.36,12.13,9.22,21.64,18.26,28.97,26.17-8.42,4.04-16.83,8.09-25.25,12.13Z" fill="#ebb377"/><path d="m710.3,842.26c48.04,3.59,114.24,12.96,187.81,37.8,89.48,30.21,153.57,71.04,193.28,100.78h-381.09v-138.59Z" fill="#0d9a48"/><path d="m1305.57,855.54c-48.18,3.25-114.56,11.72-188.34,34.18-89.73,27.31-154,64.23-193.82,91.13h382.15v-125.31Z" fill="#51b848"/><path d="m1114.4,980.84c-4.08-9.76-12.98-26.49-32.63-42.4-13.78-11.16-28.11-18.07-38.48-22.21,7.75-3.96,16.89-8.13,27.41-12.08,11.08-4.17,21.5-7.27,30.74-9.61,12.45,5.19,26.14,11.89,40.03,20.55,35.93,22.41,56.93,47.8,68.84,65.75h-95.91Z" fill="#ebb377"/></svg>