<?xml version="1.0" encoding="UTF-8"?><svg id="a" xmlns="http://www.w3.org/2000/svg" viewBox="682 138 88 85"><path fill="#5d3222" d="m686.7,182.9c-.3-1.5.3-3.7,1.4-5.1.7-.8,1.4-1.2,1.4-2.1.1-1.1-.8-2-1.4-2.6,0,0-.8-.9-4.3-5.2-2.8-3.5-1.2-9.2-.8-10.6,2-7.6,10.1-13.5,17.2-13.1,3.1.2,10,1.8,12.8,5.2.4.5,1.7,2.2,3.2,2,1,0,1.6-.9,1.8-1.2,0,0,1.4-1.8,7.2-7.3,4.3-4.2,11-3.7,12.1-3.7,5.7.4,9.5,3.5,11,4.8,1,.8,6.9,5.9,7.1,13.2,0,1.8.1,5.2-1.7,8.5-.5.9-1.5,2.5-2,4.8-.4,1.8-.1,2.9,0,3.4.3.9.8,1.9,1.8,2.9,2.9,3,6.9,3.2,10.1,5.4,3.1,2.1,6.1,6.4,5.7,11-.4,4-3.3,8.3-7,9.3-2.4.7-6.2.3-12.1-.3-.5,0-1.8-.2-2.8.6-1,.7-1.3,1.9-1.4,2.8-.7,3.6.3,5.6.2,7.7-.3,3.9-4.5,8.2-8.7,8.8-5.3.8-12.4-4.2-15.5-9-.6-.9-1.7-2.8-3.5-3-1.8-.2-3.3,1.3-4.1,2-4.1,3.7-11.8,6.4-16.4,4.7-4.6-1.7-8.1-8.6-6.8-13.3.9-3.2,4.5-6.1,5.8-10.8.2-.5.4-1.4,0-2.2-.6-1.5-2.4-1.6-4.9-2.7-2-.9-4.9-2.3-5.5-4.7Z"/></svg>