<?xml version="1.0" encoding="UTF-8"?><svg id="CoinFall" xmlns="http://www.w3.org/2000/svg" viewBox="94 0 96 128"><defs><style>.cls-1{fill:#f59cad;}.cls-2{fill:#6f3240;}.cls-3{fill:url(#linear-gradient);}</style><linearGradient id="linear-gradient" x1="129.4138" y1="57.2245" x2="130.0176" y2="127.3454" gradientTransform="translate(23.5778 -26.3836) rotate(12.7657)" gradientUnits="userSpaceOnUse"><stop offset="0" stop-color="#fbd6e0"/><stop offset=".0322" stop-color="#f9ccd7"/><stop offset=".1219" stop-color="#f7b6c4"/><stop offset=".2213" stop-color="#f6a7b7"/><stop offset=".337" stop-color="#f59eaf"/><stop offset=".5077" stop-color="#f59cad"/><stop offset=".7395" stop-color="#f499ab"/><stop offset=".842" stop-color="#f092a5"/><stop offset=".919" stop-color="#eb869b"/><stop offset=".9829" stop-color="#e3748d"/><stop offset="1" stop-color="#e16e88"/></linearGradient></defs><circle class="cls-3" cx="129.7149" cy="92.1933" r="35.0617"/><ellipse class="cls-2" cx="117.3065" cy="88.3053" rx="11.291" ry="7.4912" transform="translate(5.2633 183.1998) rotate(-77.2343)"/><ellipse class="cls-2" cx="142.5874" cy="94.0331" rx="11.291" ry="7.4912" transform="translate(19.3718 212.318) rotate(-77.2343)"/><rect class="cls-1" x="159.3597" y="50.4161" width="5.9752" height="12.989" rx="2.9876" ry="2.9876" transform="translate(50.2057 -73.5491) rotate(30)"/><rect class="cls-1" x="174.0317" y="33.594" width="5.9752" height="42.7965" rx="2.9876" ry="2.9876" transform="translate(51.2122 -81.1421) rotate(30)"/><rect class="cls-1" x="162.7019" y="-3.8503" width="5.9752" height="63.4611" rx="2.9876" ry="2.9876" transform="translate(36.1383 -79.1095) rotate(30)"/><rect class="cls-1" x="128.4772" y="15.1505" width="5.9752" height="38.943" rx="2.9876" ry="2.9876" transform="translate(34.9239 -61.0939) rotate(30)"/><rect class="cls-1" x="141.2706" y="25.7611" width="5.9752" height="26.7623" rx="2.9876" ry="2.9876" transform="translate(38.898 -66.885) rotate(30)"/><rect class="cls-1" x="173.5944" y="19.4963" width="5.9752" height="25.518" rx="2.9876" ry="2.9876" transform="translate(39.7852 -83.9696) rotate(30)"/><rect class="cls-1" x="154.9639" y="8.6082" width="5.9752" height="13.633" rx="2.9876" ry="2.9876" transform="translate(28.8738 -76.9092) rotate(30)"/></svg>