<svg xmlns="http://www.w3.org/2000/svg" width="100" height="100" viewBox="0 0 100 100">
    <path d="M66.7 92.3L66.7 92.3Q65.0 92.3 63.8 91.5Q62.7 90.7 62.5 89.2Q62.3 87.7 63.0 86.3Q63.7 85 65.0 84.3L65.0 84.3Q68.7 83 71.7 80.7L71.7 80.7Q73.0 79.7 74.8 79.8Q76.7 80 77.7 81.5Q78.7 83 78.3 84.7Q78.0 86.3 76.7 87.3L76.7 87.3Q72.7 90 68.3 92L68.3 92Q67.3 92.3 66.7 92.3ZM83.7 79L83.7 79Q81.0 79 79.8 76.7Q78.7 74.3 80.0 72.3L80.0 72.3Q82.3 69 84.0 65.7L84.0 65.7Q85.0 64.0 86.5 63.5Q88.0 63.0 89.7 63.7Q91.3 64.3 91.8 65.8Q92.3 67.3 91.7 69L91.7 69Q89.7 73.3 87.0 77.3L87.0 77.3Q85.7 79 83.7 79ZM91.3 58.7L91.3 58.7Q89.7 58.7 88.3 57.3Q87.0 56.0 87.3 54.3L87.3 54.3L87.3 50.3L87.3 46.3Q87.0 44.7 88.2 43.3Q89.3 42.0 91.0 41.8Q92.7 41.7 94.0 42.7Q95.3 43.7 95.7 45.7Q96.0 47.7 96.0 50.0L96.0 50.0L96.0 50.3Q95.7 52.7 95.7 55.0L95.7 55.0Q95.3 56.7 94.2 57.7Q93.0 58.7 91.3 58.7ZM88.0 37.3L88.0 37.3Q87.0 37.3 86.0 36.7Q85.0 36 84.3 35.0L84.3 35.0Q82.7 31.3 80.3 28.0L80.3 28.0Q79.0 26.0 80.0 23.8Q81.0 21.7 83.3 21.5Q85.7 21.3 87.3 23.3L87.3 23.3Q90.0 27.0 92.0 31.7L92.0 31.7Q92.7 33.3 92.0 34.8Q91.3 36.3 90.0 37.0L90.0 37.0Q89.0 37.3 88.0 37.3ZM74.7 20.7L74.7 20.7Q73.3 20.7 72.0 19.7L72.0 19.7Q69.0 17.3 65.3 15.7L65.3 15.7Q63.7 15.0 63.2 13.5Q62.7 12.0 63.3 10.3Q64 8.7 65.7 8.0Q67.3 7.3 68.7 8.3L68.7 8.3Q73.3 10.3 77.0 13.0L77.0 13.0Q78.0 13.7 78.5 15.0Q79.0 16.3 78.5 17.7Q78.0 19.0 77.0 19.8Q76.0 20.7 74.7 20.7ZM23.3 23.3L23.3 23.3Q18.3 28.7 15.5 35.5Q12.7 42.3 12.7 50.0Q12.7 57.7 15.5 64.5Q18.3 71.3 23.5 76.5Q28.7 81.7 35.5 84.5Q42.3 87.3 49.7 87.7L49.7 87.7L53.3 87.3Q56.0 87 57.3 89Q58.7 91 57.7 93.2Q56.7 95.3 54.3 95.7L54.3 95.7L49.7 96Q40.7 95.7 32.3 92.2Q24.0 88.7 17.7 82.3Q11.3 76 7.8 67.7Q4.3 59.3 4.3 50.0Q4.3 40.7 7.8 32.3Q11.3 24.0 17.7 17.5Q24.0 11.0 32.5 7.5Q41.0 4.0 50.0 4.3L50.0 4.3L50.3 4.3Q52.7 4.3 54.7 4.5Q56.7 4.7 57.7 6.0Q58.7 7.3 58.5 9.0Q58.3 10.7 57.0 11.8Q55.7 13.0 54.0 12.7L54.0 12.7L50.0 12.7Q42.3 12.7 35.5 15.5Q28.7 18.3 23.3 23.3ZM51.0 27.3L51.0 27.3L51.0 27.3L70.3 41.0Q73.3 43.0 74.5 46.5Q75.7 50.0 74.5 53.5Q73.3 57.0 70.3 59.3L70.3 59.3L51.0 73Q47.3 75.7 43.2 75.2Q39.0 74.7 36.2 71.5Q33.3 68.3 33.3 64.0L33.3 64.0L33.3 36.7Q33.3 32.3 36.2 29.2Q39.0 26.0 43.2 25.5Q47.3 25.0 51.0 27.3ZM65.3 47.7L46.3 34.3Q44.7 33.3 43.2 34.2Q41.7 35.0 41.7 36.7L41.7 36.7L41.7 64.0Q41.7 65.7 43.2 66.5Q44.7 67.3 46.3 66.3L46.3 66.3L65.3 52.3Q66.7 51.7 66.7 50.2Q66.7 48.7 65.3 47.7L65.3 47.7Z" id="path_play-story"></path>
</svg>