<?xml version="1.0" encoding="UTF-8"?><svg id="BottleRefill" xmlns="http://www.w3.org/2000/svg" viewBox="0 0 245 340"><path d="m104.4569,22.0678c6.094,0,11.0339-4.9405,11.0339-11.0345S110.5509,0,104.4569,0H20.5891c-3.9037,0-7.5178,2.0638-9.5025,5.4248L1.5337,21.6078c-3.0975,5.2477-1.355,12.0135,3.8927,15.111,5.2465,3.0975,12.0128,1.3556,15.111-3.8927l6.3508-10.7583h77.5687Z" fill="#8a8890"/><path d="m111.9674,41.1938h-52.2276c-6.094,0-11.0339,4.9405-11.0339,11.0345s4.9398,11.0345,11.0339,11.0345h52.2276c6.094,0,11.0345-4.9405,11.0345-11.0345s-4.9404-11.0345-11.0345-11.0345Z" fill="#8a8890"/><path d="m104.4569,22.0678c6.094,0,11.0339-4.9405,11.0339-11.0345S110.5509,0,104.4569,0h-18.6033v22.0678h18.6033Z" fill="#787781"/><path d="m111.9674,41.1938l-26.1144.0621v22.0063h26.1144c6.094,0,11.0345-4.9405,11.0345-11.0345s-4.9404-11.0339-11.0345-11.0339Z" fill="#787781"/><rect x="73.5639" y="22.0678" width="12.5477" height="19.1874" fill="#3f3e43"/><path d="m104.4274,282.0334c0-35.1259,24.7303-64.4625,57.7258-71.5847v-92.5704c0-30.116-24.5009-54.6163-54.6163-54.6163h-21.6838v248.2541h24.7697c-3.9733-9.0229-6.1953-18.9908-6.1953-29.4827Z" fill="#7cb8e5"/><rect x="85.8554" y="22.0678" width="12.8038" height="19.1874" fill="#2e2e30"/><path d="m211.1077,254.6468c-11.7741-11.7523-28.2003-16.0213-41.8866-10.8098-10.787,4.1075-16.3988,12.7818-18.3762,16.2377-.264.3712-.6463.7789-1.195,1.0549-.7634.3841-1.4962.3338-1.7153.3248-8.5406-.3489-17.0813-.6979-25.6219-1.0468-.5452.0009-1.3357-.1011-1.793-.6447-.5448-.6475-.5847-1.6351-.069-2.4018,15.6107-28.0767,43.9284-43.6567,70.288-39.4248,18.9576,3.0436,31.2687,15.4303,36.1184,20.9609,4.9171-4.9171,9.8342-9.8343,14.7514-14.7514.176-.2031.3193-.2892.4299-.2583.2118.0592.3037.5473.2758,1.4645,0,13.4174,0,26.8348,0,40.2522.014.1328.0696.7904-.3939,1.3516-.6342.7678-1.6462.636-1.7036.6275-13.2679-.0064-26.5358-.0127-39.8037-.0191-.2171-.0232-.5088-.0957-.6554-.3147-.3185-.4757.1327-1.5077,1.231-2.5179,3.3731-3.3617,6.7462-6.7234,10.1193-10.0851Zm-59.8052,45.8037c11.7741,11.7523,28.2003,16.0213,41.8866,10.8098,10.787-4.1075,16.3988-12.7818,18.3762-16.2377.264-.3712.6463-.7789,1.195-1.0549.7634-.3841,1.4962-.3338,1.7153-.3248,8.5406.3489,17.0813.6979,25.6219,1.0468.5452-.0009,1.3357.1011,1.793.6447.5448.6475.5847,1.6351.069,2.4018-15.6107,28.0767-43.9284,43.6567-70.288,39.4248-18.9576-3.0436-31.2687-15.4303-36.1184-20.9609-4.9171,4.9171-9.8342,9.8343-14.7514,14.7514-.176.2031-.3193.2892-.4299.2583-.2118-.0592-.3037-.5473-.2758-1.4645,0-13.4174,0-26.8348,0-40.2522-.014-.1328-.0696-.7904.3939-1.3516.6342-.7678,1.6462-.636,1.7036-.6275,13.2679.0064,26.5358.0127,39.8037.0191.2171.0232.5088.0957.6554.3147.3185.4757-.1327,1.5077-1.231,2.5179-3.3731,3.3617-6.7462,6.7234-10.1193,10.0851Z" fill="#58595b"/><path d="m104.4274,282.0334c0-35.1261,24.7306-64.4629,57.7263-71.5848v-92.5703h-.0005c0-30.116-24.5009-54.6163-54.6163-54.6163h-43.3652c-30.1155,0-54.6163,24.5003-54.6163,54.6163v182.6045c0,6.094,4.9398,11.0345,11.0345,11.0345h90.0335c-3.9736-9.0233-6.1959-18.9916-6.1959-29.4839Z" fill="#98c8ec"/><path d="m104.4274,282.0334c0-28.868,16.7059-53.8254,40.972-65.7588v-17.0388c0-2.8566-2.3157-5.1735-5.1735-5.1735H31.4818c-2.8572,0-5.1735,2.3157-5.1735,5.1735v89.9741c0,2.8566,2.3157,5.1735,5.1735,5.1735h74.0029c-.6824-4.017-1.0574-8.1385-1.0574-12.3499Z" fill="#60a9dd"/><path d="m104.4274,282.0334c0-28.868,16.7059-53.8254,40.972-65.7588v-17.0388c0-2.8566-2.3157-5.1735-5.1735-5.1735h-54.3718v100.3204h19.6305c-.6824-4.0168-1.0573-8.1382-1.0573-12.3493Z" fill="#4899d3"/></svg>